<mxfile host="app.diagrams.net" modified="2022-11-11T00:23:05.297Z" agent="5.0 (X11; Linux x86_64) AppleWebKit/537.36 (KHTML, like Gecko) Chrome/107.0.0.0 Safari/537.36" etag="oWxyt3JfYbqYfL4trcpV" version="20.5.3" type="github">
  <diagram id="4ExQs3FsQdGXXMGGeCWO" name="Page-1">
    <mxGraphModel dx="1366" dy="712" grid="1" gridSize="10" guides="1" tooltips="1" connect="1" arrows="1" fold="1" page="1" pageScale="1" pageWidth="1169" pageHeight="827" math="0" shadow="0">
      <root>
        <mxCell id="0" />
        <mxCell id="1" parent="0" />
        <mxCell id="gF7DfLX3lE4fEg31mTFB-2" value="початок" style="ellipse;whiteSpace=wrap;html=1;" vertex="1" parent="1">
          <mxGeometry x="310" y="20" width="120" height="40" as="geometry" />
        </mxCell>
        <mxCell id="gF7DfLX3lE4fEg31mTFB-3" value="введення а,h" style="shape=parallelogram;perimeter=parallelogramPerimeter;whiteSpace=wrap;html=1;fixedSize=1;" vertex="1" parent="1">
          <mxGeometry x="300" y="80" width="120" height="40" as="geometry" />
        </mxCell>
        <mxCell id="gF7DfLX3lE4fEg31mTFB-4" value="" style="endArrow=none;html=1;rounded=0;entryX=0.442;entryY=1.025;entryDx=0;entryDy=0;entryPerimeter=0;exitX=0.5;exitY=0;exitDx=0;exitDy=0;" edge="1" parent="1" source="gF7DfLX3lE4fEg31mTFB-3" target="gF7DfLX3lE4fEg31mTFB-2">
          <mxGeometry width="50" height="50" relative="1" as="geometry">
            <mxPoint x="570" y="240" as="sourcePoint" />
            <mxPoint x="620" y="190" as="targetPoint" />
          </mxGeometry>
        </mxCell>
        <mxCell id="gF7DfLX3lE4fEg31mTFB-5" value="" style="endArrow=none;html=1;rounded=0;entryX=0.5;entryY=1;entryDx=0;entryDy=0;" edge="1" parent="1" target="gF7DfLX3lE4fEg31mTFB-3">
          <mxGeometry width="50" height="50" relative="1" as="geometry">
            <mxPoint x="360" y="140" as="sourcePoint" />
            <mxPoint x="620" y="190" as="targetPoint" />
          </mxGeometry>
        </mxCell>
        <mxCell id="gF7DfLX3lE4fEg31mTFB-7" value="a&amp;gt;0&lt;br&gt;h&amp;gt;0" style="rhombus;whiteSpace=wrap;html=1;" vertex="1" parent="1">
          <mxGeometry x="320" y="140" width="80" height="60" as="geometry" />
        </mxCell>
        <mxCell id="gF7DfLX3lE4fEg31mTFB-8" value="" style="endArrow=none;html=1;rounded=0;exitX=1;exitY=0.5;exitDx=0;exitDy=0;entryX=1;entryY=0.5;entryDx=0;entryDy=0;" edge="1" parent="1" source="gF7DfLX3lE4fEg31mTFB-7" target="gF7DfLX3lE4fEg31mTFB-3">
          <mxGeometry width="50" height="50" relative="1" as="geometry">
            <mxPoint x="570" y="240" as="sourcePoint" />
            <mxPoint x="440" y="110" as="targetPoint" />
            <Array as="points">
              <mxPoint x="440" y="170" />
              <mxPoint x="440" y="100" />
            </Array>
          </mxGeometry>
        </mxCell>
        <mxCell id="gF7DfLX3lE4fEg31mTFB-9" value="ні" style="text;html=1;strokeColor=none;fillColor=none;align=center;verticalAlign=middle;whiteSpace=wrap;rounded=0;" vertex="1" parent="1">
          <mxGeometry x="390" y="150" width="60" height="30" as="geometry" />
        </mxCell>
        <mxCell id="gF7DfLX3lE4fEg31mTFB-10" value="" style="endArrow=none;html=1;rounded=0;entryX=0;entryY=0.5;entryDx=0;entryDy=0;exitX=0.5;exitY=0;exitDx=0;exitDy=0;" edge="1" parent="1" source="gF7DfLX3lE4fEg31mTFB-12" target="gF7DfLX3lE4fEg31mTFB-7">
          <mxGeometry width="50" height="50" relative="1" as="geometry">
            <mxPoint x="240" y="210" as="sourcePoint" />
            <mxPoint x="620" y="190" as="targetPoint" />
            <Array as="points">
              <mxPoint x="235" y="170" />
            </Array>
          </mxGeometry>
        </mxCell>
        <mxCell id="gF7DfLX3lE4fEg31mTFB-11" value="так" style="text;html=1;strokeColor=none;fillColor=none;align=center;verticalAlign=middle;whiteSpace=wrap;rounded=0;" vertex="1" parent="1">
          <mxGeometry x="260" y="150" width="60" height="30" as="geometry" />
        </mxCell>
        <mxCell id="gF7DfLX3lE4fEg31mTFB-12" value="V = a^3 + a^2h,&lt;br&gt;S =7a^2 + 4ah" style="rhombus;whiteSpace=wrap;html=1;" vertex="1" parent="1">
          <mxGeometry x="180" y="210" width="110" height="100" as="geometry" />
        </mxCell>
        <mxCell id="gF7DfLX3lE4fEg31mTFB-14" value="" style="endArrow=none;html=1;rounded=0;exitX=0.5;exitY=1;exitDx=0;exitDy=0;entryX=0.5;entryY=0;entryDx=0;entryDy=0;" edge="1" parent="1" source="gF7DfLX3lE4fEg31mTFB-12" target="gF7DfLX3lE4fEg31mTFB-15">
          <mxGeometry width="50" height="50" relative="1" as="geometry">
            <mxPoint x="570" y="210" as="sourcePoint" />
            <mxPoint x="360" y="330" as="targetPoint" />
            <Array as="points">
              <mxPoint x="235" y="330" />
              <mxPoint x="350" y="330" />
            </Array>
          </mxGeometry>
        </mxCell>
        <mxCell id="gF7DfLX3lE4fEg31mTFB-15" value="виведення V,S" style="shape=parallelogram;perimeter=parallelogramPerimeter;whiteSpace=wrap;html=1;fixedSize=1;" vertex="1" parent="1">
          <mxGeometry x="290" y="350" width="120" height="40" as="geometry" />
        </mxCell>
        <mxCell id="gF7DfLX3lE4fEg31mTFB-16" value="кінець" style="ellipse;whiteSpace=wrap;html=1;" vertex="1" parent="1">
          <mxGeometry x="290" y="420" width="120" height="40" as="geometry" />
        </mxCell>
        <mxCell id="gF7DfLX3lE4fEg31mTFB-17" value="" style="endArrow=none;html=1;rounded=0;exitX=0.5;exitY=0;exitDx=0;exitDy=0;entryX=0.5;entryY=1;entryDx=0;entryDy=0;" edge="1" parent="1" source="gF7DfLX3lE4fEg31mTFB-16" target="gF7DfLX3lE4fEg31mTFB-15">
          <mxGeometry width="50" height="50" relative="1" as="geometry">
            <mxPoint x="570" y="210" as="sourcePoint" />
            <mxPoint x="620" y="160" as="targetPoint" />
          </mxGeometry>
        </mxCell>
        <mxCell id="gF7DfLX3lE4fEg31mTFB-18" value="початок" style="ellipse;whiteSpace=wrap;html=1;" vertex="1" parent="1">
          <mxGeometry x="585" y="20" width="120" height="40" as="geometry" />
        </mxCell>
        <mxCell id="gF7DfLX3lE4fEg31mTFB-19" value="введення N" style="shape=parallelogram;perimeter=parallelogramPerimeter;whiteSpace=wrap;html=1;fixedSize=1;" vertex="1" parent="1">
          <mxGeometry x="585" y="100" width="120" height="40" as="geometry" />
        </mxCell>
        <mxCell id="gF7DfLX3lE4fEg31mTFB-20" value="99&amp;lt;N&amp;lt;1000" style="rhombus;whiteSpace=wrap;html=1;" vertex="1" parent="1">
          <mxGeometry x="605" y="180" width="80" height="60" as="geometry" />
        </mxCell>
        <mxCell id="gF7DfLX3lE4fEg31mTFB-22" value="" style="endArrow=none;html=1;rounded=0;entryX=0.5;entryY=1;entryDx=0;entryDy=0;exitX=0.5;exitY=0;exitDx=0;exitDy=0;" edge="1" parent="1" source="gF7DfLX3lE4fEg31mTFB-19" target="gF7DfLX3lE4fEg31mTFB-18">
          <mxGeometry width="50" height="50" relative="1" as="geometry">
            <mxPoint x="570" y="380" as="sourcePoint" />
            <mxPoint x="620" y="330" as="targetPoint" />
          </mxGeometry>
        </mxCell>
        <mxCell id="gF7DfLX3lE4fEg31mTFB-23" value="" style="endArrow=none;html=1;rounded=0;entryX=0.5;entryY=1;entryDx=0;entryDy=0;exitX=0.5;exitY=0;exitDx=0;exitDy=0;" edge="1" parent="1" source="gF7DfLX3lE4fEg31mTFB-20" target="gF7DfLX3lE4fEg31mTFB-19">
          <mxGeometry width="50" height="50" relative="1" as="geometry">
            <mxPoint x="640" y="180" as="sourcePoint" />
            <mxPoint x="620" y="330" as="targetPoint" />
          </mxGeometry>
        </mxCell>
        <mxCell id="gF7DfLX3lE4fEg31mTFB-24" value="" style="endArrow=none;html=1;rounded=0;entryX=1;entryY=0.5;entryDx=0;entryDy=0;exitX=1;exitY=0.5;exitDx=0;exitDy=0;" edge="1" parent="1" source="gF7DfLX3lE4fEg31mTFB-19" target="gF7DfLX3lE4fEg31mTFB-20">
          <mxGeometry width="50" height="50" relative="1" as="geometry">
            <mxPoint x="570" y="380" as="sourcePoint" />
            <mxPoint x="620" y="330" as="targetPoint" />
            <Array as="points">
              <mxPoint x="720" y="120" />
              <mxPoint x="720" y="210" />
            </Array>
          </mxGeometry>
        </mxCell>
        <mxCell id="gF7DfLX3lE4fEg31mTFB-25" value="ні" style="text;html=1;strokeColor=none;fillColor=none;align=center;verticalAlign=middle;whiteSpace=wrap;rounded=0;" vertex="1" parent="1">
          <mxGeometry x="670" y="190" width="60" height="30" as="geometry" />
        </mxCell>
        <mxCell id="gF7DfLX3lE4fEg31mTFB-26" value="" style="endArrow=none;html=1;rounded=0;entryX=0;entryY=0.5;entryDx=0;entryDy=0;" edge="1" parent="1" target="gF7DfLX3lE4fEg31mTFB-20">
          <mxGeometry width="50" height="50" relative="1" as="geometry">
            <mxPoint x="530" y="240" as="sourcePoint" />
            <mxPoint x="620" y="330" as="targetPoint" />
            <Array as="points">
              <mxPoint x="530" y="210" />
            </Array>
          </mxGeometry>
        </mxCell>
        <mxCell id="gF7DfLX3lE4fEg31mTFB-27" value="M = N[0]kN[1]kN[2]" style="rhombus;whiteSpace=wrap;html=1;" vertex="1" parent="1">
          <mxGeometry x="470" y="240" width="125" height="70" as="geometry" />
        </mxCell>
        <mxCell id="gF7DfLX3lE4fEg31mTFB-28" value="так" style="text;html=1;strokeColor=none;fillColor=none;align=center;verticalAlign=middle;whiteSpace=wrap;rounded=0;" vertex="1" parent="1">
          <mxGeometry x="545" y="190" width="60" height="30" as="geometry" />
        </mxCell>
        <mxCell id="gF7DfLX3lE4fEg31mTFB-29" value="виведення M" style="shape=parallelogram;perimeter=parallelogramPerimeter;whiteSpace=wrap;html=1;fixedSize=1;" vertex="1" parent="1">
          <mxGeometry x="585" y="340" width="120" height="40" as="geometry" />
        </mxCell>
        <mxCell id="gF7DfLX3lE4fEg31mTFB-30" value="" style="endArrow=none;html=1;rounded=0;entryX=0.5;entryY=1;entryDx=0;entryDy=0;exitX=0.5;exitY=0;exitDx=0;exitDy=0;" edge="1" parent="1" source="gF7DfLX3lE4fEg31mTFB-29" target="gF7DfLX3lE4fEg31mTFB-27">
          <mxGeometry width="50" height="50" relative="1" as="geometry">
            <mxPoint x="570" y="390" as="sourcePoint" />
            <mxPoint x="620" y="340" as="targetPoint" />
            <Array as="points">
              <mxPoint x="645" y="320" />
              <mxPoint x="530" y="320" />
            </Array>
          </mxGeometry>
        </mxCell>
        <mxCell id="gF7DfLX3lE4fEg31mTFB-31" value="кінець" style="ellipse;whiteSpace=wrap;html=1;" vertex="1" parent="1">
          <mxGeometry x="585" y="420" width="120" height="40" as="geometry" />
        </mxCell>
        <mxCell id="gF7DfLX3lE4fEg31mTFB-32" value="" style="endArrow=none;html=1;rounded=0;exitX=0.5;exitY=0;exitDx=0;exitDy=0;entryX=0.5;entryY=1;entryDx=0;entryDy=0;" edge="1" parent="1" source="gF7DfLX3lE4fEg31mTFB-31" target="gF7DfLX3lE4fEg31mTFB-29">
          <mxGeometry width="50" height="50" relative="1" as="geometry">
            <mxPoint x="570" y="390" as="sourcePoint" />
            <mxPoint x="620" y="340" as="targetPoint" />
          </mxGeometry>
        </mxCell>
        <mxCell id="gF7DfLX3lE4fEg31mTFB-33" value="початок" style="ellipse;whiteSpace=wrap;html=1;" vertex="1" parent="1">
          <mxGeometry x="1030" y="60" width="120" height="40" as="geometry" />
        </mxCell>
        <mxCell id="gF7DfLX3lE4fEg31mTFB-34" value="введення а1,а2,а3,&lt;br&gt;b1,b2,b3" style="shape=parallelogram;perimeter=parallelogramPerimeter;whiteSpace=wrap;html=1;fixedSize=1;" vertex="1" parent="1">
          <mxGeometry x="1020" y="127.5" width="140" height="40" as="geometry" />
        </mxCell>
        <mxCell id="gF7DfLX3lE4fEg31mTFB-35" value="a1&amp;gt;0,a2&amp;gt;0&amp;lt;a3&amp;gt;0&lt;br&gt;b1&amp;gt;0,b2&amp;gt;0,b3&amp;gt;0" style="rhombus;whiteSpace=wrap;html=1;" vertex="1" parent="1">
          <mxGeometry x="1030" y="225" width="120" height="85" as="geometry" />
        </mxCell>
        <mxCell id="gF7DfLX3lE4fEg31mTFB-36" value="V(v)=a1*a2*a3,&lt;br&gt;V(k)=b1*b2*b3" style="rhombus;whiteSpace=wrap;html=1;" vertex="1" parent="1">
          <mxGeometry x="905" y="350" width="125" height="70" as="geometry" />
        </mxCell>
        <mxCell id="gF7DfLX3lE4fEg31mTFB-37" value="" style="endArrow=none;html=1;rounded=0;entryX=0.567;entryY=1.025;entryDx=0;entryDy=0;entryPerimeter=0;exitX=0.55;exitY=0.05;exitDx=0;exitDy=0;exitPerimeter=0;" edge="1" parent="1" source="gF7DfLX3lE4fEg31mTFB-34" target="gF7DfLX3lE4fEg31mTFB-33">
          <mxGeometry width="50" height="50" relative="1" as="geometry">
            <mxPoint x="570" y="370" as="sourcePoint" />
            <mxPoint x="620" y="320" as="targetPoint" />
          </mxGeometry>
        </mxCell>
        <mxCell id="gF7DfLX3lE4fEg31mTFB-38" value="" style="endArrow=none;html=1;rounded=0;entryX=0.5;entryY=1;entryDx=0;entryDy=0;exitX=0.5;exitY=0;exitDx=0;exitDy=0;" edge="1" parent="1" source="gF7DfLX3lE4fEg31mTFB-35" target="gF7DfLX3lE4fEg31mTFB-34">
          <mxGeometry width="50" height="50" relative="1" as="geometry">
            <mxPoint x="570" y="370" as="sourcePoint" />
            <mxPoint x="620" y="320" as="targetPoint" />
          </mxGeometry>
        </mxCell>
        <mxCell id="gF7DfLX3lE4fEg31mTFB-39" value="" style="endArrow=none;html=1;rounded=0;entryX=0;entryY=0.5;entryDx=0;entryDy=0;exitX=0.5;exitY=0;exitDx=0;exitDy=0;" edge="1" parent="1" source="gF7DfLX3lE4fEg31mTFB-36" target="gF7DfLX3lE4fEg31mTFB-35">
          <mxGeometry width="50" height="50" relative="1" as="geometry">
            <mxPoint x="570" y="370" as="sourcePoint" />
            <mxPoint x="620" y="320" as="targetPoint" />
            <Array as="points">
              <mxPoint x="970" y="270" />
            </Array>
          </mxGeometry>
        </mxCell>
        <mxCell id="gF7DfLX3lE4fEg31mTFB-40" value="" style="endArrow=none;html=1;rounded=0;entryX=1;entryY=0.5;entryDx=0;entryDy=0;exitX=1;exitY=0.5;exitDx=0;exitDy=0;" edge="1" parent="1" source="gF7DfLX3lE4fEg31mTFB-34" target="gF7DfLX3lE4fEg31mTFB-35">
          <mxGeometry width="50" height="50" relative="1" as="geometry">
            <mxPoint x="570" y="370" as="sourcePoint" />
            <mxPoint x="620" y="320" as="targetPoint" />
            <Array as="points">
              <mxPoint x="1230" y="150" />
              <mxPoint x="1230" y="270" />
            </Array>
          </mxGeometry>
        </mxCell>
        <mxCell id="gF7DfLX3lE4fEg31mTFB-41" value="V(v)&amp;gt;V(k)" style="rhombus;whiteSpace=wrap;html=1;" vertex="1" parent="1">
          <mxGeometry x="905" y="460" width="125" height="70" as="geometry" />
        </mxCell>
        <mxCell id="gF7DfLX3lE4fEg31mTFB-42" value="так" style="text;html=1;strokeColor=none;fillColor=none;align=center;verticalAlign=middle;whiteSpace=wrap;rounded=0;" vertex="1" parent="1">
          <mxGeometry x="960" y="245" width="60" height="30" as="geometry" />
        </mxCell>
        <mxCell id="gF7DfLX3lE4fEg31mTFB-43" value="ні" style="text;html=1;strokeColor=none;fillColor=none;align=center;verticalAlign=middle;whiteSpace=wrap;rounded=0;" vertex="1" parent="1">
          <mxGeometry x="1150" y="240" width="60" height="30" as="geometry" />
        </mxCell>
        <mxCell id="gF7DfLX3lE4fEg31mTFB-44" value="" style="endArrow=none;html=1;rounded=0;entryX=0.5;entryY=0;entryDx=0;entryDy=0;exitX=0.5;exitY=1;exitDx=0;exitDy=0;" edge="1" parent="1" source="gF7DfLX3lE4fEg31mTFB-36" target="gF7DfLX3lE4fEg31mTFB-41">
          <mxGeometry width="50" height="50" relative="1" as="geometry">
            <mxPoint x="570" y="360" as="sourcePoint" />
            <mxPoint x="620" y="310" as="targetPoint" />
          </mxGeometry>
        </mxCell>
        <mxCell id="gF7DfLX3lE4fEg31mTFB-46" value="" style="endArrow=none;html=1;rounded=0;entryX=1;entryY=0.5;entryDx=0;entryDy=0;" edge="1" parent="1" target="gF7DfLX3lE4fEg31mTFB-41">
          <mxGeometry width="50" height="50" relative="1" as="geometry">
            <mxPoint x="1110" y="560" as="sourcePoint" />
            <mxPoint x="620" y="310" as="targetPoint" />
            <Array as="points">
              <mxPoint x="1110" y="495" />
            </Array>
          </mxGeometry>
        </mxCell>
        <mxCell id="gF7DfLX3lE4fEg31mTFB-47" value="ні" style="text;html=1;strokeColor=none;fillColor=none;align=center;verticalAlign=middle;whiteSpace=wrap;rounded=0;" vertex="1" parent="1">
          <mxGeometry x="1030" y="470" width="60" height="30" as="geometry" />
        </mxCell>
        <mxCell id="gF7DfLX3lE4fEg31mTFB-48" value="" style="endArrow=none;html=1;rounded=0;entryX=0;entryY=0.5;entryDx=0;entryDy=0;" edge="1" parent="1" target="gF7DfLX3lE4fEg31mTFB-41">
          <mxGeometry width="50" height="50" relative="1" as="geometry">
            <mxPoint x="840" y="560" as="sourcePoint" />
            <mxPoint x="620" y="310" as="targetPoint" />
            <Array as="points">
              <mxPoint x="840" y="495" />
            </Array>
          </mxGeometry>
        </mxCell>
        <mxCell id="gF7DfLX3lE4fEg31mTFB-49" value="так" style="text;html=1;strokeColor=none;fillColor=none;align=center;verticalAlign=middle;whiteSpace=wrap;rounded=0;" vertex="1" parent="1">
          <mxGeometry x="840" y="470" width="60" height="30" as="geometry" />
        </mxCell>
        <mxCell id="gF7DfLX3lE4fEg31mTFB-52" value="виведення результату" style="shape=parallelogram;perimeter=parallelogramPerimeter;whiteSpace=wrap;html=1;fixedSize=1;" vertex="1" parent="1">
          <mxGeometry x="780" y="560" width="120" height="40" as="geometry" />
        </mxCell>
        <mxCell id="gF7DfLX3lE4fEg31mTFB-53" value="виведення результату" style="shape=parallelogram;perimeter=parallelogramPerimeter;whiteSpace=wrap;html=1;fixedSize=1;" vertex="1" parent="1">
          <mxGeometry x="1049" y="560" width="120" height="40" as="geometry" />
        </mxCell>
        <mxCell id="gF7DfLX3lE4fEg31mTFB-54" value="кінець" style="ellipse;whiteSpace=wrap;html=1;" vertex="1" parent="1">
          <mxGeometry x="920" y="660" width="120" height="40" as="geometry" />
        </mxCell>
        <mxCell id="gF7DfLX3lE4fEg31mTFB-55" value="" style="endArrow=none;html=1;rounded=0;entryX=0.5;entryY=1;entryDx=0;entryDy=0;exitX=0;exitY=0.325;exitDx=0;exitDy=0;exitPerimeter=0;" edge="1" parent="1" source="gF7DfLX3lE4fEg31mTFB-54" target="gF7DfLX3lE4fEg31mTFB-52">
          <mxGeometry width="50" height="50" relative="1" as="geometry">
            <mxPoint x="770" y="460" as="sourcePoint" />
            <mxPoint x="820" y="410" as="targetPoint" />
            <Array as="points">
              <mxPoint x="840" y="673" />
            </Array>
          </mxGeometry>
        </mxCell>
        <mxCell id="gF7DfLX3lE4fEg31mTFB-56" value="" style="endArrow=none;html=1;rounded=0;entryX=1;entryY=0.5;entryDx=0;entryDy=0;exitX=0.5;exitY=1;exitDx=0;exitDy=0;" edge="1" parent="1" source="gF7DfLX3lE4fEg31mTFB-53" target="gF7DfLX3lE4fEg31mTFB-54">
          <mxGeometry width="50" height="50" relative="1" as="geometry">
            <mxPoint x="770" y="460" as="sourcePoint" />
            <mxPoint x="820" y="410" as="targetPoint" />
            <Array as="points">
              <mxPoint x="1109" y="680" />
            </Array>
          </mxGeometry>
        </mxCell>
      </root>
    </mxGraphModel>
  </diagram>
</mxfile>
